<svg width="21" height="22" viewBox="0 0 21 22" fill="none" xmlns="http://www.w3.org/2000/svg">
<path d="M6.70129 13.3187C6.40107 13.9342 6.27348 14.4494 6.26531 14.4832C6.22093 14.6664 6.30035 14.8558 6.45932 14.9533C6.54635 15.0067 8.61043 16.2531 10.3242 15.5458C10.4614 15.4892 10.5952 15.4272 10.7251 15.3604C9.26366 14.9956 7.89394 14.2295 6.70129 13.3187Z" fill="#78C0DE"/>
<path d="M6.73964 7.74836C6.74296 7.75099 6.89134 7.87113 7.08784 8.06457C8.6845 6.9273 10.5592 6.07973 12.5203 6.07975C12.9529 6.07967 13.3892 6.10569 13.8272 6.15706C13.6028 5.75366 13.2294 5.33265 12.6289 4.93237C11.4508 4.14697 9.93046 4.74455 8.73575 5.49678C7.6074 6.20722 6.74068 7.06914 6.70435 7.10547C6.52353 7.28628 6.53802 7.58586 6.73964 7.74836Z" fill="#78C0DE"/>
<path d="M5.51339 12.313C5.33119 12.142 5.06965 11.8857 4.90254 11.6989C4.46135 11.2059 4.46131 10.4624 4.90299 9.96889C5.01734 9.84134 5.24604 9.60608 5.51335 9.35528C5.04436 9.00023 4.46848 8.45373 3.92598 7.6399C3.77491 7.41345 3.45379 7.38093 3.26069 7.57403C2.61571 8.219 2.26089 8.99642 2.28717 9.70688C2.31489 10.4552 2.31491 11.2137 2.28719 11.9614C2.26089 12.6719 2.61571 13.4493 3.26069 14.0943C3.45346 14.287 3.77479 14.2552 3.92595 14.0284C4.4685 13.2146 5.0444 12.6681 5.51339 12.313Z" fill="#78C0DE"/>
<path d="M15.3497 14.081C14.0415 12.5762 14.0388 9.10318 15.3461 7.59154C15.3612 7.57408 15.3518 7.58425 15.5497 7.38636C14.533 7.09303 13.5152 6.9441 12.5199 6.94429C10.3067 6.94425 8.14272 8.19542 6.49127 9.63598C6.07742 9.99718 5.71782 10.3547 5.54634 10.546C5.39947 10.7101 5.39947 10.9584 5.54636 11.1225C5.91433 11.5339 6.67718 12.2393 7.49793 12.8347C8.75285 13.744 10.2022 14.4774 11.733 14.673C11.7399 14.6667 12.009 14.7178 12.5488 14.724C13.5308 14.7212 14.5441 14.5749 15.5313 14.2907L15.3497 14.081Z" fill="#78C0DE"/>
<path d="M19.8431 11.8102C20.0472 11.5528 20.231 11.2211 20.2551 10.8905C20.3088 10.1641 19.501 9.42035 18.9143 8.98765C18.1853 8.45002 17.3083 8.00846 16.4675 7.69115L15.9905 8.16816C14.9744 9.36308 14.982 12.3402 16.0027 13.5143L16.4214 13.9975C17.5854 13.5638 19.0796 12.7853 19.8431 11.8102ZM16.7028 10.4707C16.6339 10.2516 16.7552 10.0034 16.9905 9.93193C17.2134 9.85784 17.4847 9.99452 17.5398 10.2608C17.5619 10.3686 17.541 10.485 17.4754 10.5852C17.264 10.8939 16.8055 10.8111 16.7028 10.4707Z" fill="#78C0DE"/>
</svg>
