<svg width="62" height="77" viewBox="0 0 62 77" fill="none" xmlns="http://www.w3.org/2000/svg">
<path d="M52.4453 67.7985V56.2855H60.1206V70.3569C60.1206 71.714 59.5815 73.0155 58.6219 73.9751C57.6623 74.9347 56.3608 75.4738 55.0037 75.4738H52.4453V67.7985Z" fill="#F6BB92"/>
<path d="M56.283 44.7726L57.3629 42.2142L58.3207 39.945C58.8338 38.7249 58.9718 37.3795 58.7171 36.0806C58.4624 34.7817 57.8266 33.5881 56.8907 32.652C55.6415 31.4026 54.9398 29.7081 54.9399 27.9413V21.7467H26.861V27.9418C26.8611 29.7086 26.1594 31.4031 24.9102 32.6525C23.9743 33.5884 23.3384 34.7819 23.0836 36.0807C22.8288 37.3796 22.9667 38.7249 23.4796 39.945L24.4934 42.3565L56.283 44.7726Z" fill="#834B10"/>
<path d="M60.121 49.9954C60.121 48.1785 59.4765 46.4205 58.3021 45.0342C57.1277 43.6479 55.4996 42.7232 53.7075 42.4245L52.4457 42.2142L45.8393 41.1131L40.9327 46.0519L35.9745 41.0751L26.8613 42.2142V75.4739H52.4457V65.2401C53.6028 64.0825 54.3334 62.5668 54.5181 60.9405C54.7029 59.3142 54.3309 57.6733 53.463 56.2856H60.121V49.9954Z" fill="#85BC94"/>
<path d="M55.0041 23.026H26.8613V15.3507C26.8613 11.6187 28.3438 8.03961 30.9827 5.40071C33.6216 2.76181 37.2008 1.2793 40.9327 1.2793C44.6647 1.2793 48.2438 2.76181 50.8827 5.40071C53.5216 8.03961 55.0041 11.6187 55.0041 15.3507V23.026Z" fill="#834B10"/>
<path d="M51.1665 19.1882H49.8872V11.5129H31.9782V19.1882H30.699C29.6812 19.1882 28.705 19.5926 27.9854 20.3123C27.2657 21.032 26.8613 22.0081 26.8613 23.0259C26.8613 24.0437 27.2657 25.0198 27.9854 25.7395C28.705 26.4592 29.6812 26.8636 30.699 26.8636H31.9782V28.1428C31.9782 30.5177 32.9216 32.7953 34.6009 34.4746C36.2802 36.1539 38.5578 37.0973 40.9327 37.0973C43.3076 37.0973 45.5852 36.1539 47.2645 34.4746C48.9438 32.7953 49.8872 30.5177 49.8872 28.1428V26.8636H51.1665C52.1843 26.8636 53.1604 26.4592 53.8801 25.7395C54.5998 25.0198 55.0041 24.0437 55.0041 23.0259C55.0041 22.0081 54.5998 21.032 53.8801 20.3123C53.1604 19.5926 52.1843 19.1882 51.1665 19.1882Z" fill="#F6BB92"/>
<path d="M39.6528 50.9368V75.4738H11.0303C11.9845 73.9884 13.0952 72.6097 14.3434 71.3611L14.4378 71.2668C16.7251 68.9834 18.5547 66.2838 19.8281 63.3133C20.3302 62.1428 20.8307 60.9723 21.1953 60.1232C21.5263 59.3509 21.7437 58.844 21.7437 58.844H18.0628C16.9219 58.843 15.8141 58.4612 14.9149 57.759C14.0158 57.0569 13.3768 56.0746 13.0994 54.968L12.4694 52.4479L12.3047 51.7891C12.2104 51.412 12.2033 51.0183 12.284 50.638C12.3646 50.2577 12.5309 49.9007 12.7701 49.5943C13.0093 49.2879 13.3152 49.04 13.6646 48.8695C14.014 48.699 14.3976 48.6103 14.7864 48.6103H19.1853C20.0101 46.1334 21.6941 44.0336 23.9328 42.6907L24.4924 42.3565C25.9312 41.4937 27.5642 41.0075 29.2406 40.9429C30.917 40.8784 32.5825 41.2375 34.0834 41.9871L34.1393 42.0159C35.796 42.8443 37.1893 44.1177 38.1631 45.6933C39.1369 47.2689 39.6527 49.0846 39.6528 50.9368Z" fill="#BD9070"/>
<path d="M39.6528 51.1687V54.7984C39.6528 55.6039 39.3994 56.3889 38.9284 57.0423C38.4574 57.6957 37.7928 58.1844 37.0287 58.4391C36.241 58.7016 35.3894 58.7016 34.6017 58.4391C33.8376 58.1844 33.1729 57.6957 32.702 57.0423C32.231 56.3889 31.9776 55.6039 31.9775 54.7984V48.6102H37.0944L39.6528 51.1687Z" fill="#9E785D"/>
<path d="M27.7664 57.1906L25.208 59.749C24.9678 59.9887 24.6423 60.1233 24.303 60.1232H21.1961C21.5271 59.3509 21.7445 58.844 21.7445 58.844H18.0636C16.8178 58.8452 15.6148 58.3901 14.6816 57.5648H23.7737L25.9563 55.3805C26.1964 55.1405 26.5219 55.0056 26.8614 55.0056C27.2008 55.0056 27.5264 55.1405 27.7664 55.3805C28.0065 55.6205 28.1413 55.9461 28.1413 56.2855C28.1413 56.625 28.0065 56.9506 27.7664 57.1906Z" fill="#9E785D"/>
<path d="M16.627 48.6102V50.1563C16.627 50.7641 16.3856 51.347 15.9559 51.7767C15.5261 52.2065 14.9432 52.4479 14.3355 52.4479H12.4696L12.3049 51.7891C12.2106 51.4119 12.2035 51.0183 12.2842 50.6379C12.3648 50.2576 12.5311 49.9007 12.7703 49.5943C13.0095 49.2879 13.3154 49.04 13.6648 48.8695C14.0142 48.6989 14.3978 48.6103 14.7866 48.6102H16.627Z" fill="#9E785D"/>
<path d="M20.5956 72.3141C20.3582 72.3139 20.1254 72.2476 19.9235 72.1226C19.7215 71.9977 19.5583 71.819 19.4522 71.6065C19.3461 71.394 19.3012 71.1562 19.3226 70.9197C19.3439 70.6832 19.4307 70.4573 19.5732 70.2673C21.099 68.2342 22.2863 65.9681 23.0895 63.5564C23.1414 63.3955 23.2246 63.2465 23.3344 63.118C23.4443 62.9895 23.5785 62.884 23.7293 62.8077C23.8801 62.7313 24.0446 62.6856 24.2132 62.6732C24.3818 62.6609 24.5512 62.682 24.7115 62.7355C24.8719 62.7889 25.0201 62.8736 25.1475 62.9847C25.2749 63.0958 25.3791 63.231 25.4539 63.3826C25.5288 63.5342 25.5729 63.6991 25.5836 63.8678C25.5943 64.0365 25.5715 64.2057 25.5165 64.3655C24.6265 67.0381 23.3107 69.5493 21.62 71.8024C21.5008 71.9615 21.3462 72.0906 21.1684 72.1794C20.9905 72.2683 20.7944 72.3144 20.5956 72.3141Z" fill="#9E785D"/>
<path d="M30.6982 19.1883C31.9009 18.7875 33.0017 18.1294 33.924 17.2598C34.8464 16.3903 35.5681 15.3301 36.039 14.1531L37.0943 11.513L30.6982 10.2338V19.1883Z" fill="#834B10"/>
<path d="M37.0947 11.513L37.2446 11.7376C38.7725 14.0295 40.8426 15.9088 43.2711 17.2085C45.6997 18.5083 48.4116 19.1883 51.1661 19.1883V10.2338L37.0947 11.513Z" fill="#834B10"/>
<path d="M36.1352 23.3457C37.0183 23.3457 37.7342 22.6298 37.7342 21.7467C37.7342 20.8636 37.0183 20.1477 36.1352 20.1477C35.252 20.1477 34.5361 20.8636 34.5361 21.7467C34.5361 22.6298 35.252 23.3457 36.1352 23.3457Z" fill="#834B10"/>
<path d="M45.7289 23.3457C46.612 23.3457 47.3279 22.6298 47.3279 21.7467C47.3279 20.8636 46.612 20.1477 45.7289 20.1477C44.8458 20.1477 44.1299 20.8636 44.1299 21.7467C44.1299 22.6298 44.8458 23.3457 45.7289 23.3457Z" fill="#834B10"/>
<path d="M40.9323 28.1427H38.3739C38.1559 28.1427 37.9414 28.087 37.751 27.9808C37.5605 27.8746 37.4004 27.7215 37.2858 27.536C37.1711 27.3505 37.1058 27.1388 37.096 26.921C37.0862 26.7031 37.1323 26.4864 37.2298 26.2914L39.7882 21.1745C39.8626 21.0229 39.9662 20.8876 40.0931 20.7762C40.22 20.6648 40.3677 20.5797 40.5276 20.5257C40.6876 20.4717 40.8566 20.4499 41.0251 20.4615C41.1935 20.4732 41.358 20.5181 41.509 20.5936C41.66 20.6691 41.7945 20.7737 41.9049 20.9015C42.0152 21.0293 42.0992 21.1776 42.152 21.338C42.2047 21.4984 42.2252 21.6676 42.2122 21.8359C42.1993 22.0043 42.1531 22.1684 42.0764 22.3188L40.4437 25.5843H40.9323C41.2716 25.5843 41.597 25.7191 41.8369 25.959C42.0768 26.1989 42.2116 26.5242 42.2116 26.8635C42.2116 27.2028 42.0768 27.5282 41.8369 27.7681C41.597 28.008 41.2716 28.1427 40.9323 28.1427Z" fill="#834B10"/>
<path d="M48.6073 52.4479C48.2681 52.4479 47.9427 52.3131 47.7028 52.0732C47.4629 51.8333 47.3281 51.5079 47.3281 51.1687V42.2142C47.3281 41.8749 47.4629 41.5495 47.7028 41.3096C47.9427 41.0697 48.2681 40.9349 48.6073 40.9349C48.9466 40.9349 49.272 41.0697 49.5119 41.3096C49.7518 41.5495 49.8866 41.8749 49.8866 42.2142V51.1687C49.8866 51.5079 49.7518 51.8333 49.5119 52.0732C49.272 52.3131 48.9466 52.4479 48.6073 52.4479Z" fill="#C3C3C3"/>
<path d="M48.6082 58.844C50.7276 58.844 52.4458 57.1258 52.4458 55.0064C52.4458 52.8869 50.7276 51.1687 48.6082 51.1687C46.4887 51.1687 44.7705 52.8869 44.7705 55.0064C44.7705 57.1258 46.4887 58.844 48.6082 58.844Z" fill="#E4E4E2"/>
<path d="M48.6073 56.2856C49.3138 56.2856 49.8866 55.7129 49.8866 55.0064C49.8866 54.2999 49.3138 53.7272 48.6073 53.7272C47.9009 53.7272 47.3281 54.2999 47.3281 55.0064C47.3281 55.7129 47.9009 56.2856 48.6073 56.2856Z" fill="#C3C3C3"/>
<path d="M53.7242 75.4739H34.5359C33.5181 75.4739 32.542 75.0695 31.8223 74.3498C31.1026 73.6301 30.6982 72.654 30.6982 71.6362C30.6982 70.6184 31.1026 69.6423 31.8223 68.9226C32.542 68.2029 33.5181 67.7985 34.5359 67.7985H35.8151C35.8151 67.12 36.0847 66.4693 36.5645 65.9895C37.0443 65.5097 37.695 65.2401 38.3735 65.2401H38.5931C39.2716 65.2401 39.9223 65.5097 40.4021 65.9894L42.2112 67.7985H53.7242V75.4739Z" fill="#F6BB92"/>
<path d="M11.1734 69.5353C10.9844 69.954 10.8879 70.4085 10.8907 70.8678C10.8934 71.3272 10.9953 71.7805 11.1893 72.1969C11.3833 72.6133 11.665 72.9829 12.0149 73.2804C12.3649 73.5779 12.775 73.7964 13.2171 73.9209L18.1412 75.3121C19.1206 75.5889 20.1699 75.4653 21.0581 74.9684C21.9464 74.4716 22.601 73.6423 22.8778 72.6628C23.1545 71.6835 23.0308 70.6343 22.534 69.7461C22.0372 68.8578 21.2079 68.2034 20.2285 67.9265L18.9973 67.5787C19.0887 67.2554 19.1155 66.9173 19.0762 66.5836C19.0369 66.2499 18.9323 65.9272 18.7683 65.634C18.6043 65.3408 18.3841 65.0827 18.1204 64.8745C17.8566 64.6664 17.5545 64.5122 17.2312 64.4208L17.0199 64.3612C16.6966 64.2698 16.3585 64.243 16.0248 64.2823C15.6911 64.3217 15.3684 64.4263 15.0752 64.5903C13.625 65.4016 12.4733 66.6566 11.7894 68.171L11.1734 69.5353Z" fill="#F6BB92"/>
<path d="M4.50968 34.348C5.36131 34.3481 6.17805 34.6864 6.78029 35.2886L8.39818 36.9065L10.0159 35.2886C10.6182 34.6864 11.4349 34.3481 12.2865 34.348C13.0027 34.348 13.6984 34.5874 14.2629 35.0282C14.8274 35.469 15.2284 36.0858 15.402 36.7806C15.5985 37.5662 15.5472 38.3933 15.2552 39.1486C14.9632 39.9039 14.4448 40.5504 13.771 40.9996L8.39834 44.5814L3.02562 40.9996C2.35184 40.5505 1.83343 39.9039 1.54144 39.1486C1.24946 38.3933 1.19817 37.5662 1.39462 36.7806C1.56828 36.0859 1.96917 35.4691 2.53359 35.0283C3.098 34.5876 3.79355 34.3481 4.50968 34.348Z" fill="#DC4D41"/>
<path d="M30.6982 19.1882H31.9775V26.8635H30.6982V19.1882Z" fill="#EEB58E"/>
<path d="M49.8867 19.1882H51.1659V26.8635H49.8867V19.1882Z" fill="#EEB58E"/>
<path d="M35.9746 41.0751L40.9329 46.0519L45.8395 41.1131C45.5408 41.0633 45.2694 40.9092 45.0737 40.6782C44.8779 40.4471 44.7705 40.1541 44.7705 39.8513V35.8181H37.0952V39.8058C37.0952 40.1175 36.9813 40.4186 36.775 40.6523C36.5686 40.8861 36.284 41.0364 35.9746 41.0751Z" fill="#F6BB92"/>
<path d="M40.9321 37.0974C38.5572 37.0974 36.2796 36.154 34.6003 34.4747C32.921 32.7954 31.9775 30.5178 31.9775 28.1429V26.8636H49.8866V28.1429C49.8866 30.5178 48.9432 32.7954 47.2639 34.4747C45.5846 36.154 43.3069 37.0974 40.9321 37.0974Z" fill="#85BC94"/>
<path d="M25.582 51.1687C26.2884 51.1687 26.8612 50.5959 26.8612 49.8894C26.8612 49.183 26.2884 48.6102 25.582 48.6102C24.8755 48.6102 24.3027 49.183 24.3027 49.8894C24.3027 50.5959 24.8755 51.1687 25.582 51.1687Z" fill="#9E785D"/>
<path d="M36.1352 23.3457C37.0183 23.3457 37.7342 22.6298 37.7342 21.7467C37.7342 20.8636 37.0183 20.1477 36.1352 20.1477C35.252 20.1477 34.5361 20.8636 34.5361 21.7467C34.5361 22.6298 35.252 23.3457 36.1352 23.3457Z" fill="black"/>
<path d="M45.7299 23.3457C46.613 23.3457 47.3289 22.6298 47.3289 21.7467C47.3289 20.8636 46.613 20.1477 45.7299 20.1477C44.8468 20.1477 44.1309 20.8636 44.1309 21.7467C44.1309 22.6298 44.8468 23.3457 45.7299 23.3457Z" fill="black"/>
<path d="M48.6073 56.2856C49.3138 56.2856 49.8866 55.7129 49.8866 55.0064C49.8866 54.2999 49.3138 53.7272 48.6073 53.7272C47.9009 53.7272 47.3281 54.2999 47.3281 55.0064C47.3281 55.7129 47.9009 56.2856 48.6073 56.2856Z" fill="black"/>
<path d="M58.3185 43.2376L59.4992 40.4412C60.1147 38.9872 60.2812 37.3824 59.9773 35.833C59.6734 34.2837 58.9129 32.8606 57.7937 31.747C57.2936 31.2474 56.897 30.6541 56.6265 30.0011C56.3559 29.3481 56.2168 28.6482 56.217 27.9413L56.2826 15.3506C56.2826 11.2794 54.6653 7.37489 51.7865 4.49609C48.9077 1.61729 45.0032 0 40.932 0C36.8608 0 32.9563 1.61729 30.0775 4.49609C27.1987 7.37489 25.5814 11.2794 25.5814 15.3506V27.9413C25.5772 29.3678 25.0109 30.7352 24.0052 31.747C22.889 32.8624 22.1306 34.2852 21.8267 35.8337C21.5229 37.3821 21.6874 38.986 22.2994 40.4405L22.8869 41.8378C20.8432 43.169 19.2456 45.0825 18.3006 47.3311H14.7864C14.2032 47.3292 13.6273 47.4612 13.1031 47.7169C12.5789 47.9726 12.1204 48.3451 11.7628 48.8058C11.6716 48.9223 11.5872 49.0438 11.51 49.1699C11.1296 49.7888 10.9344 50.5036 10.9476 51.2299C10.9531 51.5234 10.9918 51.8154 11.0631 52.1001L11.2278 52.7589L11.8576 55.278C12.2018 56.6627 12.9998 57.8921 14.1243 58.7703C15.2488 59.6484 16.635 60.1247 18.0618 60.1231H19.8027L18.6514 62.8104C18.553 63.0405 18.4488 63.2699 18.3421 63.4988C18.0993 63.3688 17.8433 63.2651 17.5784 63.1895L17.3669 63.1297C16.8821 62.9913 16.3747 62.9504 15.874 63.0094C15.3733 63.0685 14.8893 63.2262 14.4499 63.4735C12.7635 64.4217 11.4229 65.8826 10.6228 67.6442L10.0067 69.0087C9.65918 69.778 9.53659 70.63 9.65318 71.4661C9.76977 72.3023 10.1208 73.0882 10.6655 73.7331C10.4192 74.0784 10.1819 74.428 9.95382 74.7818C9.82949 74.9751 9.75952 75.1983 9.75128 75.4279C9.74303 75.6576 9.7968 75.8852 9.90694 76.0869C10.0171 76.2886 10.1795 76.4569 10.3772 76.5742C10.5749 76.6914 10.8005 76.7532 11.0303 76.7531H55.0034C56.6991 76.7512 58.3249 76.0767 59.524 74.8776C60.7231 73.6785 61.3976 72.0527 61.3995 70.357V49.995C61.3996 48.7137 61.1247 47.4474 60.5931 46.2816C60.0616 45.1157 59.2859 44.0777 58.3185 43.2376ZM58.841 49.995V55.0064H54.1318C53.9931 54.8226 53.8494 54.6426 53.6959 54.47C53.585 53.4337 53.1611 52.4558 52.4806 51.6664C51.8 50.8771 50.8952 50.3137 49.8865 50.0515V43.0845L52.2345 43.476H52.2358L53.4965 43.6869C54.9902 43.9348 56.3474 44.7051 57.3262 45.8603C58.305 47.0156 58.8418 48.4809 58.841 49.995ZM51.4563 64.4284C51.4507 64.4353 51.4457 64.4428 51.4403 64.4499C51.42 64.4758 51.4 64.5017 51.3816 64.5298C51.3771 64.5367 51.3734 64.5439 51.369 64.5508C51.3507 64.5791 51.3331 64.6077 51.3172 64.6374C51.3144 64.6424 51.3124 64.6478 51.3096 64.6534C51.2937 64.6854 51.2777 64.7174 51.2634 64.7511C51.262 64.7545 51.261 64.7581 51.2596 64.7615C51.2454 64.7965 51.2324 64.8322 51.2212 64.8686C51.2201 64.8725 51.2195 64.8765 51.2183 64.8802C51.2078 64.9161 51.1982 64.9524 51.1908 64.9897C51.1888 64.9998 51.188 65.0103 51.186 65.0204C51.1808 65.0513 51.1753 65.0821 51.1721 65.1136C51.168 65.1558 51.1657 65.1985 51.1657 65.2415V66.5208H42.7411L41.3073 65.0869C41.1894 64.9701 41.064 64.861 40.932 64.7604V50.9368C40.9322 49.6456 40.7105 48.364 40.2764 47.148C40.5472 47.3112 40.8689 47.368 41.1792 47.3073C41.4895 47.2465 41.7661 47.0726 41.9554 46.8194L45.3394 42.3074C45.434 42.3352 45.5301 42.3575 45.6272 42.3742L47.3281 42.6577V50.0515C46.5262 50.2581 45.7864 50.6563 45.1723 51.2118C44.5582 51.7673 44.0881 52.4636 43.8023 53.2408C43.5166 54.018 43.4237 54.853 43.5317 55.674C43.6398 56.495 43.9455 57.2776 44.4225 57.9544C44.8996 58.6313 45.5339 59.1822 46.2708 59.56C47.0077 59.9377 47.8253 60.131 48.6533 60.1231C49.4814 60.1153 50.2952 59.9066 51.0248 59.5149C51.7544 59.1233 52.3781 58.5604 52.8423 57.8747C53.2856 58.96 53.3986 60.152 53.1671 61.3012C52.9355 62.4505 52.3698 63.5058 51.5409 64.3347C51.5111 64.3648 51.483 64.396 51.4563 64.4284ZM30.6957 20.4675H30.6982V25.5844C30.3623 25.5845 30.0295 25.5185 29.7191 25.3901C29.4086 25.2617 29.1265 25.0734 28.8888 24.8359C28.4087 24.3563 28.1389 23.7057 28.1385 23.0272C28.1382 22.3487 28.4074 21.6978 28.887 21.2177C29.3665 20.7377 30.0172 20.4678 30.6957 20.4675ZM53.7242 23.0259C53.7234 23.7042 53.4536 24.3545 52.9739 24.8341C52.4943 25.3137 51.844 25.5835 51.1657 25.5844V20.4675C51.844 20.4683 52.4943 20.7381 52.9739 21.2177C53.4536 21.6973 53.7234 22.3476 53.7242 23.0259ZM48.6073 25.5844H40.4433L42.0761 22.3188C42.1528 22.1684 42.1989 22.0043 42.2119 21.836C42.2249 21.6677 42.2044 21.4984 42.1516 21.3381C42.0989 21.1777 42.0149 21.0293 41.9045 20.9016C41.7942 20.7738 41.6596 20.6692 41.5086 20.5936C41.3576 20.5181 41.1931 20.4733 41.0247 20.4616C40.8563 20.45 40.6872 20.4718 40.5273 20.5258C40.3673 20.5798 40.2196 20.6649 40.0927 20.7763C39.9658 20.8876 39.8622 21.023 39.7879 21.1746L37.583 25.5844H33.2567V19.3827C35.0501 18.258 36.4402 16.5931 37.2267 14.6277L37.4322 14.1139C40.2693 17.4779 44.249 19.6753 48.6073 20.2842V25.5844ZM38.367 28.1428H38.3726H38.3771H48.6073C48.6073 30.1784 47.7987 32.1306 46.3593 33.57C44.9199 35.0094 42.9676 35.8181 40.932 35.8181C38.8964 35.8181 36.9441 35.0094 35.5047 33.57C34.0653 32.1306 33.2567 30.1784 33.2567 28.1428H38.367ZM40.932 38.3765C41.7951 38.377 42.6547 38.2682 43.4904 38.0527V39.8508C43.4911 40.0427 43.5131 40.2339 43.5561 40.4209L40.932 43.9199L38.2989 40.409C38.3477 40.2117 38.3728 40.0093 38.3736 39.8061V38.0527C39.2093 38.2682 40.0689 38.377 40.932 38.3765ZM38.3736 54.7985C38.3736 55.477 38.104 56.1278 37.6242 56.6076C37.1444 57.0874 36.4937 57.3569 35.8151 57.3569C35.1366 57.3569 34.4858 57.0874 34.006 56.6076C33.5262 56.1278 33.2567 55.477 33.2567 54.7985V49.8895H36.5646L38.3736 51.6985V54.7985ZM51.1657 55.0064C51.1657 55.5124 51.0157 56.007 50.7346 56.4277C50.4534 56.8485 50.0539 57.1764 49.5864 57.37C49.1189 57.5637 48.6045 57.6143 48.1082 57.5156C47.6119 57.4169 47.156 57.1732 46.7982 56.8154C46.4404 56.4576 46.1967 56.0018 46.098 55.5055C45.9993 55.0092 46.05 54.4948 46.2436 54.0273C46.4373 53.5598 46.7652 53.1602 47.1859 52.8791C47.6066 52.598 48.1013 52.4479 48.6073 52.4479C49.2856 52.4487 49.9359 52.7185 50.4155 53.1981C50.8952 53.6777 51.165 54.3281 51.1657 55.0064ZM57.1413 39.4479L56.1329 41.836C55.4269 41.5166 54.6822 41.2905 53.9176 41.1636L52.6563 40.9527H52.6554L46.0489 39.8508V36.9998C47.6035 36.1018 48.8946 34.8107 49.7928 33.2561C50.6909 31.7016 51.1644 29.9381 51.1657 28.1428C52.0388 28.1435 52.8973 27.9194 53.6586 27.4921V27.9413C53.6584 28.9843 53.8638 30.0171 54.2631 30.9806C54.6624 31.9441 55.2478 32.8195 55.9857 33.5566C56.7439 34.3113 57.2591 35.2756 57.465 36.3254C57.6709 37.3752 57.5582 38.4626 57.1413 39.4479ZM40.932 2.55844C44.3245 2.55916 47.5778 3.90713 49.9766 6.30597C52.3755 8.70481 53.7234 11.9581 53.7242 15.3506V18.5974C52.9472 18.1459 52.0644 17.9083 51.1657 17.909C50.766 17.909 50.3693 17.8931 49.9841 17.8632C47.6453 17.6916 45.377 16.9863 43.3533 15.8016C41.3295 14.6169 39.6041 12.9843 38.3096 11.0289L38.1593 10.8035C38.03 10.6095 37.8502 10.4545 37.6392 10.3553C37.4282 10.2562 37.1942 10.2165 36.9623 10.2406C36.7305 10.2648 36.5096 10.3518 36.3236 10.4924C36.1377 10.6329 35.9936 10.8216 35.9071 11.038L34.8517 13.678C34.4617 14.6551 33.8686 15.5381 33.1116 16.2686C32.3547 16.9991 31.4511 17.5605 30.4608 17.9154C29.6435 17.9525 28.8473 18.1865 28.1398 18.5974V15.3506C28.1437 11.9591 29.4926 8.70759 31.8908 6.30943C34.289 3.91127 37.5405 2.56229 40.932 2.55844ZM25.8144 33.5566C26.554 32.8209 27.1404 31.9457 27.5395 30.9819C27.9387 30.018 28.1427 28.9846 28.1398 27.9413V27.4552C28.9169 27.9065 29.7997 28.1437 30.6982 28.1428C30.6997 29.9381 31.1732 31.7016 32.0713 33.2561C32.9694 34.8107 34.2605 36.1017 35.8151 36.9998V39.8062L32.9538 40.1636C32.7117 40.0884 32.4647 40.0176 32.2104 39.9573C29.8464 39.3985 27.3649 39.6203 25.1373 40.5894L24.6576 39.4495C24.2426 38.4636 24.131 37.3763 24.337 36.3266C24.543 35.277 25.0572 34.3125 25.814 33.5566H25.8144ZM14.7864 49.8895H15.3476V50.1564C15.3473 50.4248 15.2406 50.6821 15.0508 50.8719C14.861 51.0617 14.6037 51.1684 14.3353 51.1687H13.5088C13.5088 51.1609 13.5088 51.1527 13.5097 51.1454C13.5107 51.0918 13.515 51.0384 13.5227 50.9855C13.5249 50.9695 13.527 50.9535 13.5299 50.9375C13.5406 50.8765 13.5559 50.8164 13.5754 50.7576C13.5775 50.7514 13.5806 50.7454 13.5826 50.7392C13.602 50.6859 13.6249 50.6339 13.6511 50.5836C13.6586 50.5689 13.6665 50.5544 13.6746 50.54C13.7056 50.4841 13.7407 50.4307 13.7796 50.3801C13.8988 50.2268 14.0515 50.1029 14.226 50.0179C14.4006 49.9328 14.5922 49.8889 14.7864 49.8895ZM24.3022 60.1232C24.4702 60.1232 24.6365 60.0902 24.7917 60.0259C24.9469 59.9616 25.0879 59.8674 25.2067 59.7486L27.7652 57.1901C27.884 57.0714 27.9782 56.9303 28.0425 56.7751C28.1068 56.6199 28.1399 56.4536 28.1399 56.2856C28.1399 56.1176 28.1068 55.9512 28.0425 55.796C27.9782 55.6408 27.884 55.4998 27.7652 55.381C27.6464 55.2622 27.5054 55.168 27.3501 55.1037C27.1949 55.0394 27.0286 55.0063 26.8606 55.0063C26.6926 55.0063 26.5263 55.0394 26.371 55.1037C26.2158 55.168 26.0748 55.2622 25.956 55.381L23.7724 57.5648H18.0628C17.2067 57.5658 16.3749 57.28 15.7002 56.7531C15.0255 56.2261 14.5467 55.4884 14.3403 54.6576L14.1078 53.7271H14.3353C15.282 53.726 16.1896 53.3495 16.859 52.6801C17.5284 52.0107 17.905 51.1031 17.9061 50.1564V49.8895H19.1853C19.4538 49.8895 19.7154 49.805 19.9332 49.648C20.151 49.491 20.3139 49.2695 20.3988 49.0148C21.1267 46.8286 22.6127 44.975 24.5882 43.7891L25.1508 43.4533C27.0934 42.2874 29.4146 41.9263 31.6196 42.4468C31.8975 42.5127 32.1663 42.5902 32.4258 42.6793C32.7931 42.8038 33.1516 42.9528 33.4989 43.1253L33.5669 43.1602C34.1473 43.4501 34.6931 43.8049 35.1937 44.2176C35.207 44.2286 35.2206 44.2395 35.2344 44.2496C36.2789 45.1157 37.1055 46.215 37.6476 47.459C37.4751 47.3754 37.286 47.3317 37.0943 47.3311H31.9775C31.6382 47.3311 31.3128 47.4658 31.0729 47.7057C30.833 47.9456 30.6982 48.271 30.6982 48.6103V54.7985C30.6957 55.6976 30.9305 56.5815 31.3791 57.3608C31.8277 58.14 32.4741 58.787 33.253 59.2363C34.0318 59.6856 34.9155 59.9212 35.8146 59.9195C36.7138 59.9177 37.5965 59.6785 38.3736 59.2262V63.9609C37.5796 63.9606 36.8051 64.2065 36.1567 64.6647C35.5083 65.1229 35.0179 65.7708 34.753 66.5193H34.5359C33.6375 66.5186 32.7548 66.7547 31.9766 67.2037C31.1985 67.6528 30.5524 68.2989 30.1034 69.0771C29.6544 69.8552 29.4184 70.738 29.4191 71.6364C29.4198 72.5348 29.6572 73.4172 30.1074 74.1946H23.6077C24.077 73.3864 24.3161 72.4651 24.2992 71.5306C24.2823 70.5962 24.01 69.6841 23.5118 68.8934C24.3206 67.4505 24.9917 65.9346 25.5161 64.3658C25.6235 64.0439 25.5986 63.6926 25.447 63.3891C25.2954 63.0856 25.0294 62.8548 24.7075 62.7474C24.3857 62.64 24.0344 62.6649 23.7309 62.8165C23.4274 62.9682 23.1965 63.2342 23.0891 63.556C22.6817 64.7752 22.176 65.9592 21.577 67.0966C21.2585 66.9279 20.9232 66.7933 20.5764 66.6952L20.3673 66.636C20.3448 66.2856 20.2738 65.9399 20.1564 65.609C20.4628 65.0198 20.7471 64.4192 21.0039 63.817L22.5869 60.1232H24.3022ZM12.3389 70.0616L12.955 68.6972C13.5288 67.4342 14.49 66.3868 15.6993 65.707C15.8457 65.6247 16.007 65.5722 16.1739 65.5525C16.3408 65.5328 16.5099 65.5464 16.6715 65.5924L16.8829 65.6522C17.2092 65.7447 17.4854 65.963 17.651 66.259C17.8165 66.555 17.8579 66.9046 17.766 67.231C17.6737 67.5575 17.7149 67.9072 17.8805 68.2033C18.0461 68.4994 18.3225 68.7176 18.649 68.8099L19.8802 69.1579C20.5294 69.3456 21.0779 69.7826 21.406 70.3734C21.7341 70.9642 21.8151 71.6608 21.6314 72.3111C21.4477 72.9615 21.0141 73.5127 20.4254 73.8445C19.8366 74.1762 19.1405 74.2616 18.4891 74.0819L13.5641 72.6907C13.2992 72.6161 13.0535 72.4852 12.8438 72.3069C12.6341 72.1286 12.4653 71.9072 12.3491 71.6577C12.2329 71.4082 12.1718 71.1366 12.1702 70.8613C12.1686 70.5861 12.2264 70.3138 12.3397 70.0629L12.3389 70.0616ZM58.841 70.357C58.8399 71.3744 58.4351 72.3498 57.7157 73.0693C56.9963 73.7887 56.0208 74.1934 55.0034 74.1946H34.5359C33.8574 74.1946 33.2066 73.9251 32.7268 73.4453C32.247 72.9655 31.9775 72.3147 31.9775 71.6362C31.9775 70.9576 32.247 70.3069 32.7268 69.8271C33.2066 69.3473 33.8574 69.0778 34.5359 69.0778H35.8151C36.1544 69.0778 36.4798 68.943 36.7197 68.7031C36.9596 68.4632 37.0943 68.1378 37.0943 67.7985C37.0939 67.6304 37.1267 67.4639 37.1909 67.3085C37.255 67.1531 37.3493 67.012 37.4681 66.8931C37.587 66.7742 37.7282 66.68 37.8835 66.6159C38.0389 66.5517 38.2055 66.5189 38.3736 66.5193H38.5926C38.9318 66.5219 39.2566 66.6565 39.4981 66.8946L41.3066 68.7031C41.4254 68.8219 41.5665 68.9161 41.7217 68.9804C41.8769 69.0447 42.0432 69.0778 42.2112 69.0778H52.445C52.7842 69.0778 53.1096 68.943 53.3495 68.7031C53.5894 68.4632 53.7242 68.1378 53.7242 67.7985V65.7457C54.6906 64.6453 55.3572 63.3145 55.6597 61.8815C55.9622 60.4486 55.8903 58.9619 55.4511 57.5648H58.841V70.357Z" fill="black"/>
<path d="M16.6433 36.4703C16.4505 35.6995 16.0566 34.9936 15.5019 34.4247C14.9471 33.8559 14.2513 33.4444 13.4856 33.2322C12.7199 33.0201 11.9115 33.015 11.1432 33.2173C10.3748 33.4197 9.67383 33.8223 9.11189 34.3841L8.39872 35.0972L7.6854 34.3841C7.12349 33.8223 6.42256 33.4196 5.65418 33.2172C4.88579 33.0148 4.07746 33.0199 3.31169 33.232C2.54593 33.4441 1.85016 33.8556 1.29541 34.4245C0.740653 34.9934 0.346782 35.6993 0.154003 36.4702C-0.104858 37.5117 -0.0361423 38.6078 0.350776 39.6088C0.737693 40.6099 1.42398 41.4673 2.31604 42.064L7.68876 45.6458C7.89889 45.7859 8.14578 45.8607 8.39832 45.8607C8.65087 45.8607 8.89776 45.7859 9.10789 45.6458L14.4806 42.064C15.3728 41.4674 16.0592 40.6101 16.4462 39.609C16.8333 38.608 16.9021 37.5119 16.6433 36.4703ZM13.0615 39.9352L8.39792 43.0442L3.73485 39.9352C3.28117 39.6318 2.93213 39.1958 2.73534 38.6867C2.53854 38.1777 2.50358 37.6203 2.63521 37.0906C2.7182 36.7589 2.88771 36.4552 3.12644 36.2104C3.36517 35.9656 3.66457 35.7886 3.99409 35.6973C4.3236 35.6061 4.67142 35.6039 5.00206 35.691C5.3327 35.778 5.63431 35.9513 5.8761 36.193L7.49384 37.8109C7.61262 37.9297 7.75365 38.024 7.90885 38.0883C8.06406 38.1525 8.23041 38.1856 8.3984 38.1856C8.5664 38.1856 8.73275 38.1525 8.88795 38.0883C9.04316 38.024 9.18418 37.9297 9.30297 37.8109L10.9207 36.193C11.1625 35.9513 11.4641 35.778 11.7948 35.6908C12.1254 35.6037 12.4733 35.6059 12.8028 35.6972C13.1324 35.7885 13.4318 35.9656 13.6705 36.2104C13.9092 36.4552 14.0787 36.759 14.1616 37.0907C14.2931 37.6205 14.2581 38.1778 14.0612 38.6869C13.8643 39.1959 13.5152 39.6319 13.0615 39.9352Z" fill="black"/>
<path d="M25.582 51.1687C26.2884 51.1687 26.8612 50.5959 26.8612 49.8894C26.8612 49.183 26.2884 48.6102 25.582 48.6102C24.8755 48.6102 24.3027 49.183 24.3027 49.8894C24.3027 50.5959 24.8755 51.1687 25.582 51.1687Z" fill="black"/>
</svg>
