<svg width="220" height="50" viewBox="0 0 220 50" fill="none" xmlns="http://www.w3.org/2000/svg">
<path d="M201.705 24.2499L189.715 12.2931C189.322 11.9016 188.686 11.9023 188.294 12.2952C187.902 12.688 187.903 13.3244 188.296 13.7162L199.572 24.9613L188.295 36.2064C187.902 36.5983 187.901 37.2343 188.293 37.6271C188.49 37.8241 188.747 37.9226 189.005 37.9226C189.262 37.9226 189.518 37.8248 189.715 37.6292L201.705 25.6727C201.894 25.4844 202 25.2283 202 24.9613C202 24.6944 201.894 24.4385 201.705 24.2499Z" fill="#FFBD54"/>
<path d="M112.295 25.7501L124.285 37.7069C124.678 38.0984 125.314 38.0977 125.706 37.7048C126.098 37.312 126.097 36.6756 125.704 36.2838L114.428 25.0387L125.705 13.7936C126.098 13.4017 126.099 12.7657 125.707 12.3729C125.51 12.1759 125.253 12.0774 124.995 12.0774C124.738 12.0774 124.482 12.1752 124.285 12.3708L112.295 24.3273C112.106 24.5156 112 24.7717 112 25.0387C112 25.3056 112.106 25.5615 112.295 25.7501Z" fill="#FFBD54"/>
<path d="M11.3291 23.0146C11.3291 24.2686 11.1182 25.3643 10.6963 26.3018C10.2744 27.2334 9.67676 27.9453 8.90332 28.4375C8.12988 28.9297 7.22754 29.1758 6.19629 29.1758C5.18848 29.1758 4.29492 28.9297 3.51562 28.4375C2.73633 27.9395 2.12988 27.2334 1.69629 26.3193C1.26855 25.3994 1.04883 24.3359 1.03711 23.1289V22.2061C1.03711 20.9756 1.25098 19.8887 1.67871 18.9453C2.10645 18.002 2.70996 17.2812 3.48926 16.7832C4.27441 16.2793 5.1709 16.0273 6.17871 16.0273C7.2041 16.0273 8.10645 16.2764 8.88574 16.7744C9.6709 17.2666 10.2744 17.9844 10.6963 18.9277C11.1182 19.8652 11.3291 20.958 11.3291 22.2061V23.0146ZM9.65039 22.1885C9.65039 20.6709 9.3457 19.5078 8.73633 18.6992C8.12695 17.8848 7.27441 17.4775 6.17871 17.4775C5.1123 17.4775 4.27148 17.8848 3.65625 18.6992C3.04688 19.5078 2.7334 20.6328 2.71582 22.0742V23.0146C2.71582 24.4854 3.02344 25.6426 3.63867 26.4863C4.25977 27.3242 5.1123 27.7432 6.19629 27.7432C7.28613 27.7432 8.12988 27.3477 8.72754 26.5566C9.3252 25.7598 9.63281 24.6201 9.65039 23.1377V22.1885ZM13.21 24.166C13.21 22.707 13.5557 21.5352 14.2471 20.6504C14.9385 19.7598 15.8438 19.3145 16.9629 19.3145C18.0762 19.3145 18.958 19.6953 19.6084 20.457V15.5H21.2344V29H19.7402L19.6611 27.9805C19.0107 28.7773 18.1055 29.1758 16.9453 29.1758C15.8438 29.1758 14.9443 28.7246 14.2471 27.8223C13.5557 26.9199 13.21 25.7422 13.21 24.2891V24.166ZM14.8359 24.3506C14.8359 25.4287 15.0586 26.2725 15.5039 26.8818C15.9492 27.4912 16.5645 27.7959 17.3496 27.7959C18.3809 27.7959 19.1338 27.333 19.6084 26.4072V22.0391C19.1221 21.1426 18.375 20.6943 17.3672 20.6943C16.5703 20.6943 15.9492 21.002 15.5039 21.6172C15.0586 22.2324 14.8359 23.1436 14.8359 24.3506ZM23.3701 24.166C23.3701 22.707 23.7158 21.5352 24.4072 20.6504C25.0986 19.7598 26.0039 19.3145 27.123 19.3145C28.2363 19.3145 29.1182 19.6953 29.7686 20.457V15.5H31.3945V29H29.9004L29.8213 27.9805C29.1709 28.7773 28.2656 29.1758 27.1055 29.1758C26.0039 29.1758 25.1045 28.7246 24.4072 27.8223C23.7158 26.9199 23.3701 25.7422 23.3701 24.2891V24.166ZM24.9961 24.3506C24.9961 25.4287 25.2188 26.2725 25.6641 26.8818C26.1094 27.4912 26.7246 27.7959 27.5098 27.7959C28.541 27.7959 29.2939 27.333 29.7686 26.4072V22.0391C29.2822 21.1426 28.5352 20.6943 27.5273 20.6943C26.7305 20.6943 26.1094 21.002 25.6641 21.6172C25.2188 22.2324 24.9961 23.1436 24.9961 24.3506ZM35.6924 29H34.0664V19.4902H35.6924V29ZM33.9346 16.9678C33.9346 16.7041 34.0137 16.4814 34.1719 16.2998C34.3359 16.1182 34.5762 16.0273 34.8926 16.0273C35.209 16.0273 35.4492 16.1182 35.6133 16.2998C35.7773 16.4814 35.8594 16.7041 35.8594 16.9678C35.8594 17.2314 35.7773 17.4512 35.6133 17.627C35.4492 17.8027 35.209 17.8906 34.8926 17.8906C34.5762 17.8906 34.3359 17.8027 34.1719 17.627C34.0137 17.4512 33.9346 17.2314 33.9346 16.9678ZM41.4141 26.6182L43.6289 19.4902H45.3691L41.5459 30.4678C40.9541 32.0498 40.0137 32.8408 38.7246 32.8408L38.417 32.8145L37.8105 32.7002V31.3818L38.25 31.417C38.8008 31.417 39.2285 31.3057 39.5332 31.083C39.8438 30.8604 40.0986 30.4531 40.2979 29.8613L40.6582 28.8945L37.2656 19.4902H39.041L41.4141 26.6182Z" fill="black"/>
</svg>
