<svg width="178" height="87" viewBox="0 0 178 87" fill="none" xmlns="http://www.w3.org/2000/svg">
<path d="M10.95 37.8814L0 32.8363L11.8544 27.3617C12.1905 10.9838 28.0139 7.43341 34.5763 8.06898C41.1387 8.70528 60.2298 20.4143 52.5373 44.3313C49.9161 52.4819 50.5349 73.5703 81.1231 71.6227C78.8256 75.9526 68.0414 93.9121 32.9413 82.4872C23.2099 79.3196 9.34357 63.6387 10.95 37.8814Z" fill="#FFBD54"/>
<path d="M110.817 32.7034C111.778 21.1025 105.764 10.5871 102.242 8.16466C98.9541 5.90511 98.9424 15.66 96.0152 21.0104C91.6692 19.1994 86.8543 18.1825 81.7799 18.1825C76.7151 18.1825 71.9082 19.195 67.5696 21.0002C64.6474 15.6468 64.6328 5.90511 61.3483 8.1632C57.8286 10.5754 51.8272 21.0842 52.7711 32.6625C49.1483 37.7441 47.0342 43.8294 47.0342 50.3758C47.0342 68.1563 62.591 81.3432 81.7792 81.3432C100.969 81.3432 116.524 68.1563 116.524 50.3758C116.524 43.847 114.421 37.7769 110.817 32.7034Z" fill="#78C0DE"/>
<path d="M109.119 52.411C110.017 36.4941 116.096 34.2937 116.894 24.5601C118 11.0817 127.285 1.28155 131.873 0.0747093C136.46 -1.12921 130.608 12.5493 134.719 17.1919C143.319 14.2106 148.78 16.7492 153.093 21.4151C157.409 26.0825 151.776 30.5395 160.223 29.3444C163.698 28.8513 167.31 28.9674 170.333 29.7374C170.619 29.5482 170.928 29.3867 171.264 29.2706C173.642 28.4473 176.316 29.9325 177.239 32.5923C177.587 33.5997 177.632 34.6305 177.427 35.5685C177.533 36.0821 177.576 36.6271 177.544 37.2064C177.077 45.3884 166.995 56.6577 160.73 57.4788C154.467 58.3014 147.815 57.2194 147.646 69.7525C147.42 86.4453 110.469 93.0515 101.418 76.1045C108.042 71.3129 108.434 64.5672 109.119 52.411Z" fill="black"/>
<path d="M136.873 22.1399C141.197 22.522 144.634 20.2244 147.978 17.6486C146.633 17.4827 145.147 17.4725 143.48 17.6625C140.974 13.1317 148.234 3.04589 144.274 3.192C140.706 3.31911 131.572 8.21006 127.36 17.0751C130.417 19.1287 132.849 22.3576 136.873 22.1399Z" fill="black"/>
<path d="M38.1412 34.4356C37.6247 34.2807 37.0922 34.2391 36.5626 34.315C35.016 34.5357 33.7091 35.7483 33.3182 37.3146L29.8489 50.2765L22.9308 38.7786C22.0629 37.395 20.4564 36.6111 18.9311 36.8288C18.4109 36.9033 17.9302 37.0874 17.5014 37.3782C16.5305 37.9772 15.8613 38.8794 15.6152 39.9226C15.3785 40.9147 15.5567 41.9499 16.0995 42.8148L27.802 62.4626C27.886 62.6321 28.0167 62.8775 28.2447 63.077C28.3243 63.1661 28.4163 63.2391 28.5201 63.2976C28.5201 63.299 28.5201 63.2991 28.5208 63.2998L28.6246 63.4488L28.7685 63.5577C28.8203 63.5971 28.8795 63.6388 28.9467 63.676L28.9745 63.8703L29.4683 64.0354L29.6195 64.1479L30.7395 64.3897L31.0726 64.4526L31.2391 64.4285C31.524 64.4431 31.7352 64.4131 31.8572 64.3963C32.0237 64.3729 32.2414 64.3415 32.511 64.2466L32.763 64.2108L32.969 64.069L33.9743 63.4232L34.1803 63.1486C34.2402 63.0821 34.3271 62.9864 34.4162 62.849C34.4864 62.7672 34.5463 62.6766 34.5908 62.578C34.6208 62.5305 34.6515 62.4816 34.68 62.4312C34.6858 62.4217 34.6916 62.4129 34.6968 62.4034C34.7947 62.2982 34.8728 62.1762 34.9284 62.044C35.0277 61.8577 35.1081 61.6364 35.1533 61.4252L41.0013 39.29C41.2877 38.2826 41.1686 37.2386 40.666 36.3518C40.1334 35.4101 39.2268 34.7263 38.1412 34.4356Z" fill="white"/>
<path d="M81.5784 34.2807C72.2604 34.4436 64.7585 42.3838 64.8564 51.9998C65.096 61.6875 72.7038 69.2018 82.1767 69.1053H82.1869C87.1729 69.0177 91.2083 67.4441 94.5177 64.2948C95.3234 63.5335 95.7632 62.5648 95.7881 61.4946C95.8217 60.1197 95.1605 58.9151 94.5191 58.2335C93.8288 57.4423 92.6168 56.985 91.2631 57.0084C89.9036 57.0325 88.6485 57.5417 87.7975 58.4096C86.7053 59.2292 84.8052 59.7764 82.9211 59.81C82.6552 59.8144 82.3922 59.8078 82.1402 59.7917C80.1728 59.658 77.9381 58.6726 76.8292 57.4482L76.7393 57.3576C76.2345 56.8966 75.786 56.2428 75.4346 55.4684L94.0267 55.1441C96.4485 55.1017 98.3157 53.5968 98.6225 51.4629C98.6949 51.1948 98.708 50.9018 98.7022 50.5643L98.6927 50.1633C97.9738 40.7993 90.7759 34.12 81.5784 34.2807ZM89.2184 47.0651L75.0416 47.3127C76.0117 45.3936 78.158 43.3459 81.7099 43.0858C85.3502 43.3422 87.9355 45.2307 89.2184 47.0651Z" fill="white"/>
<path d="M138.074 49.6826C140.609 49.947 142.971 48.0578 143.232 45.5572C143.496 43.0113 141.616 40.7233 139.038 40.4544L138.796 40.4288L139.581 32.8999C139.851 30.3124 138.036 28.074 135.449 27.8037C132.827 27.5298 130.562 29.343 130.292 31.9298L129.505 39.458L129.02 39.4076C126.432 39.138 124.193 40.9526 123.923 43.5409C123.658 46.0847 125.511 48.3705 128.056 48.6372L128.541 48.6876L126.906 64.3517C126.443 68.77 129.663 72.7412 134.083 73.2029C136.67 73.4732 138.908 71.6593 139.18 69.0703C139.407 66.8976 138.201 64.9712 136.31 64.2202L137.83 49.6563L138.074 49.6826Z" fill="white"/>
</svg>
